<svg xmlns="http://www.w3.org/2000/svg" xmlns:xlink="http://www.w3.org/1999/xlink" viewBox="0 0 1000 342.57"><defs><style>.cls-1{fill:none;}.cls-2{fill:#231f20;}.cls-3{clip-path:url(#clip-path);}.cls-4{fill:#00b8ad;}.cls-4,.cls-5{fill-rule:evenodd;}.cls-5,.cls-6{fill:#1e2352;}</style><clipPath id="clip-path" transform="translate(0 0)"><rect class="cls-1" width="999.93" height="287.65"/></clipPath></defs><g id="Layer_2" data-name="Layer 2"><g id="Lager_1" data-name="Lager 1"><path class="cls-2" d="M332.75,292.46h4.4l15.34,35.84h-5.67l-3.6-8.86H326.16l-3.54,8.86H317Zm8.7,22.73-6.68-16.45h-.1l-6.78,16.45Z" transform="translate(0 0)"/><path class="cls-2" d="M370.41,292.46h12.5c15.14,0,18.83,11.29,18.83,17.92,0,9.16-6.83,17.92-19.64,17.92H370.41Zm4.86,31.28h6.12c8.2,0,15.19-4.5,15.19-13.36,0-4.56-2.38-13.36-14-13.36h-7.29Z" transform="translate(0 0)"/><path class="cls-2" d="M428.82,328.3h-4.55v-3.7h-.1c-1.16,2.53-4.2,4.31-7.9,4.31-4.65,0-8.7-2.79-8.7-9.17V304.31h4.55v14.17c0,4.5,2.58,6.17,5.47,6.17,3.79,0,6.68-2.43,6.68-8V304.31h4.55Z" transform="translate(0 0)"/><path class="cls-2" d="M435.71,304.31h4.56V308h.1c1.16-2.53,4.2-4.3,7.9-4.3,4.65,0,8.7,2.78,8.7,9.16V328.3h-4.55V314.13c0-4.51-2.58-6.18-5.47-6.18-3.8,0-6.68,2.43-6.68,8V328.3h-4.56Z" transform="translate(0 0)"/><path class="cls-2" d="M510.53,328.3H504l-4.4-4.76c-3,3.64-6.18,5.67-11,5.67-8.1,0-11.74-5.16-11.74-10.38,0-5,3.8-8.2,8.15-10.27-2.28-2.43-4.2-4.81-4.2-8.3,0-5.47,4.45-8.41,9.56-8.41s9.27,2.69,9.27,8.1c0,4.51-3.85,7.34-7.44,9.21l7.08,7.39,4.51-7.34h5.51L502.38,320Zm-22.47-16.91c-2.89,1.67-6,3.6-6,7.29,0,3.49,3.29,6.28,6.73,6.28s6.08-2.33,7.95-4.56Zm2.38-15.28c-2.59,0-4.76,1.51-4.76,4.2,0,2.38,2,4.4,3.54,6,2.48-1.37,5.57-3.09,5.57-6.33C494.79,297.57,493,296.11,490.44,296.11Z" transform="translate(0 0)"/><path class="cls-2" d="M529.72,292.46h12.45c6.23,0,10.88,2.89,10.88,9,0,4.1-2.53,6.68-6.17,7.9v.1a8.64,8.64,0,0,1,7.74,8.91c0,6.42-5.62,10-12.6,10h-12.3Zm4.86,14.88h6.63c3.69,0,6.68-1.46,6.68-5.36,0-2.84-1.77-5.27-5.67-5.27h-7.64Zm0,16.71h7.14c2.93,0,7.74-1,7.74-6.08,0-4.25-3-6.38-7.69-6.38h-7.19Z" transform="translate(0 0)"/><path class="cls-2" d="M560.45,304.31H565V308h.1a8.12,8.12,0,0,1,7.19-4.3,6.64,6.64,0,0,1,2,.3l-.21,4.91a8.83,8.83,0,0,0-2.22-.35c-4.46,0-6.89,2.43-6.89,7.69V328.3h-4.55Z" transform="translate(0 0)"/><path class="cls-2" d="M579.28,307.24a14.13,14.13,0,0,1,9.51-3.54c7.09,0,10,3.85,10,8v12.24a37.51,37.51,0,0,0,.2,4.36h-4c-.1-1.22-.15-2.43-.15-3.65h-.1c-2,3.09-4.76,4.26-8.41,4.26-4.45,0-8.3-2.54-8.3-7.19,0-6.18,5.92-8.3,13.21-8.3h3.34v-1c0-2.48-1.82-5.06-5.71-5.06-3.5,0-5.17,1.47-6.84,2.74Zm12.85,9.52c-4.3,0-9.56.76-9.56,4.6,0,2.74,2,3.9,5.16,3.9,5.06,0,6.83-3.74,6.83-7v-1.52Z" transform="translate(0 0)"/><path class="cls-2" d="M629.49,328.3h-4.55v-3.44h-.1a10.28,10.28,0,0,1-8.36,4.05c-7.44,0-12.19-5.52-12.19-12.61s4.8-12.6,12.19-12.6a10,10,0,0,1,8.36,4.05h.1V290h4.55Zm-4.55-12c0-4.86-3-8.35-7.9-8.35s-7.9,3.49-7.9,8.35,3,8.35,7.9,8.35S624.94,321.16,624.94,316.3Z" transform="translate(0 0)"/><path class="cls-2" d="M649.14,310.33a6.1,6.1,0,0,0-4.91-2.38c-2.13,0-4,1-4,2.68,0,2.89,4.1,3.29,6.12,3.75,3.95,1,7,2.48,7,7,0,5.42-5,7.55-9.72,7.55-4,0-6.89-1-9.26-4.26l3.44-2.83a7.94,7.94,0,0,0,5.82,2.83c2.33,0,4.86-1,4.86-3,0-2.74-3.8-3.24-5.77-3.7-3.9-1-7.34-2.23-7.34-6.83,0-5,4.6-7.39,9.11-7.39,3.19,0,6.48,1.11,8.2,3.95Z" transform="translate(0 0)"/><path class="cls-2" d="M671.71,308.25h-6.53v10.89c0,2.68,0,5.51,3.44,5.51a6.42,6.42,0,0,0,3.24-.71v4.16a10.44,10.44,0,0,1-4.09.81c-7,0-7.14-4.31-7.14-8.15V308.25h-5.27v-3.94h5.27v-6.74h4.55v6.74h6.53Z" transform="translate(0 0)"/><path class="cls-2" d="M677.59,304.31h4.55V308h.1a8.12,8.12,0,0,1,7.19-4.3,6.64,6.64,0,0,1,2,.3l-.21,4.91a8.9,8.9,0,0,0-2.22-.35c-4.46,0-6.89,2.43-6.89,7.69V328.3h-4.55Z" transform="translate(0 0)"/><path class="cls-2" d="M698.85,318c0,4.2,3.9,7,8.1,7,2.78,0,4.81-1.42,6.58-3.6L717,324c-2.53,3.29-6,4.91-10.63,4.91-7.59,0-12.35-5.47-12.35-12.61s5.21-12.6,12.4-12.6c8.45,0,11.69,6.48,11.69,12.65V318Zm14.37-3.64c-.1-4-2.33-7-6.93-7a7.4,7.4,0,0,0-7.44,7Z" transform="translate(0 0)"/><path class="cls-2" d="M727,318c0,4.2,3.9,7,8.1,7,2.79,0,4.81-1.42,6.58-3.6l3.45,2.64c-2.54,3.29-6,4.91-10.63,4.91-7.6,0-12.36-5.47-12.36-12.61s5.22-12.6,12.41-12.6c8.45,0,11.69,6.48,11.69,12.65V318Zm14.38-3.64c-.1-4-2.33-7-6.94-7a7.41,7.41,0,0,0-7.44,7Z" transform="translate(0 0)"/><path class="cls-2" d="M764.56,308.25H758v10.89c0,2.68,0,5.51,3.44,5.51a6.44,6.44,0,0,0,3.24-.71v4.16a10.52,10.52,0,0,1-4.1.81c-7,0-7.14-4.31-7.14-8.15V308.25h-5.26v-3.94h5.26v-6.74H758v6.74h6.53Z" transform="translate(0 0)"/><path class="cls-2" d="M810.62,300.21a11,11,0,0,0-8.66-4.1c-8,0-13.36,6.42-13.36,14.57,0,7.54,5,14,13.36,14a11.06,11.06,0,0,0,9.37-4.8l4.1,3.08a16.69,16.69,0,0,1-13.57,6.28c-11.39,0-18.42-9.52-18.42-18.53,0-11.13,7.64-19.13,18.68-19.13,4.7,0,9.66,1.77,12.55,5.57Z" transform="translate(0 0)"/><path class="cls-2" d="M831.73,303.7A12.61,12.61,0,1,1,819,316.3,12.61,12.61,0,0,1,831.73,303.7Zm0,20.95c4.86,0,7.9-3.49,7.9-8.35s-3-8.35-7.9-8.35-7.89,3.49-7.89,8.35S826.87,324.65,831.73,324.65Z" transform="translate(0 0)"/><path class="cls-2" d="M850.21,304.31h4.25v3.74h.1c.46-1.42,3.39-4.35,7.7-4.35a7.79,7.79,0,0,1,7.49,4.45,8.67,8.67,0,0,1,7.59-4.45c7.39,0,9.11,5.26,9.11,10.63v14h-4.56V314.93c0-3.64-.75-7-5.16-7s-6.12,3-6.12,7.24V328.3h-4.56V315.74c0-4.55-.66-7.79-5.06-7.79-3.29,0-6.22,2.48-6.22,7.9V328.3h-4.56Z" transform="translate(0 0)"/><path class="cls-2" d="M893.34,304.31h4.56v3.44h.1a10.24,10.24,0,0,1,8.35-4.05c7.44,0,12.2,5.51,12.2,12.6s-4.81,12.61-12.2,12.61a10,10,0,0,1-8.35-4.05h-.1v17.71h-4.56Zm4.56,12c0,4.86,3,8.35,7.89,8.35s7.9-3.49,7.9-8.35-3-8.35-7.9-8.35S897.9,311.44,897.9,316.3Z" transform="translate(0 0)"/><path class="cls-2" d="M924.37,307.24a14.15,14.15,0,0,1,9.52-3.54c7.08,0,10,3.85,10,8v12.24a37.51,37.51,0,0,0,.2,4.36h-4.05c-.1-1.22-.15-2.43-.15-3.65h-.1c-2,3.09-4.76,4.26-8.4,4.26-4.46,0-8.3-2.54-8.3-7.19,0-6.18,5.92-8.3,13.21-8.3h3.34v-1c0-2.48-1.82-5.06-5.72-5.06-3.49,0-5.16,1.47-6.83,2.74Zm12.86,9.52c-4.3,0-9.57.76-9.57,4.6,0,2.74,2,3.9,5.17,3.9,5.06,0,6.83-3.74,6.83-7v-1.52Z" transform="translate(0 0)"/><path class="cls-2" d="M950.54,304.31h4.56V308h.1c1.16-2.53,4.2-4.3,7.9-4.3,4.65,0,8.7,2.78,8.7,9.16V328.3h-4.55V314.13c0-4.51-2.58-6.18-5.47-6.18-3.8,0-6.68,2.43-6.68,8V328.3h-4.56Z" transform="translate(0 0)"/><path class="cls-2" d="M975.8,304.31h5.27L988.21,323h.1l6.78-18.72H1000l-11.39,29.15c-1.62,4.15-3.19,7-8.2,7a11.11,11.11,0,0,1-4-.66l.56-4.15a7.39,7.39,0,0,0,2.73.55c2.89,0,3.75-1.56,4.66-3.94l1.47-3.8Z" transform="translate(0 0)"/><g class="cls-3"><path class="cls-4" d="M220.52,215.12c.36,2.52-1.66,8.2-4.44,12.91-3,4.78-6,7-6.74,4.71-1.08-2.45.72-8.65,4.17-13.77,3.18-4.93,6.39-6.65,7-3.85Zm5.93-11.47c.1,2.94,1.63,1,3.52-4.21a118.51,118.51,0,0,0,3.76-14.75c.11-3.54-1.56-2.41-3.72,3-2.4,5.32-4,12.72-3.56,15.93Zm-7.38-20.07c-2.61-5.22-1.83-14.78,1.79-21,3.29-6.28,7.57-6.49,9.55-1.22,1.57,5,.67,13.7-2,19.72-3,6-7.13,7.26-9.37,2.47ZM195.9,164.35c4.3,6.15,3.62,16.32-1.46,23-5.36,6.87-13.58,7.84-18.39,1.83-5.16-6.12-4.61-17.06,1.25-24.05,5.61-6.85,14-7.14,18.6-.79Zm14-88.23c3.93,5.9,5.32,13.88,3,18.13-2.58,4.54-8.28,3.58-12.62-2.34-4.61-6.11-5.82-14.8-2.75-19.09,2.73-4.1,8.25-2.42,12.33,3.3Zm6.17-16.57c-3-4.78-5.91-6.85-6.75-4.71-1.08,2.45.8,8.8,4.17,13.77s6.46,6.82,7.08,4c.36-2.53-1.65-8.21-4.5-13.09Zm13.93,28.78c-1.88-5.18-3.47-7.33-3.51-4.22-.46,3.21,1.09,10.44,3.53,15.93,2.12,5.27,3.82,6.58,3.71,3a116.56,116.56,0,0,0-3.73-14.76Zm-1.56,18.32c2.63,6,3.52,14.73,1.94,19.73-2,5.26-6.27,4.88-9.55-1.24-3.61-6.19-4.41-15.91-1.76-21,2.2-5,6.37-3.71,9.37,2.48Zm-51.18,15.78c5.61,7,14,7.28,18.62.93,4.3-6.13,3.64-16.31-1.47-23.14-5.37-6.87-13.53-7.72-18.38-1.84-5.13,6.23-4.63,17.05,1.23,24.05Zm-7.37,8.9c-6-7-15.94-7.29-22.14-.33a19.48,19.48,0,0,0,0,25.65c6.22,6.87,16.12,6.6,22.15-.41a20,20,0,0,0,0-24.91Zm32.39,24.12c-4.43-6.38-4.43-16.95,0-23.17,4.11-6.13,10.54-5.76,14.39.5,3.51,6.22,3.5,16,0,22-3.87,6.42-10.31,6.78-14.41.65Zm35.42-20.61c-1.09-5.42-3-5.81-4.37-.86-1.74,5.4-1.75,14.41,0,19.63,1.32,5.13,3.28,4.56,4.36-.67a81.75,81.75,0,0,0,0-18.1ZM213,193.33c-2.58-4.54-8.27-3.58-12.67,2.49-4.62,6.1-5.78,14.65-2.77,19.09,2.72,4.1,8.24,2.42,12.39-3.44,3.88-5.75,5.27-13.72,3.05-18.14Z" transform="translate(0 0)"/><path class="cls-5" d="M153.29,15.36c4.44,4,5.79,9.34,2.9,12-3,2.8-9.28,1.73-14-2.58s-5.72-9.72-2.45-12.25c3.05-2.38,9-1.09,13.51,2.88Zm-39.5,35.18c-5.67-5.27-6.19-13-1.43-17.35,4.74-4,12.93-3.18,18.41,1.82s6.37,12.71,1.88,17.05c-4.7,4.49-13.14,3.9-18.86-1.52ZM101.72,61.93C95.21,55.8,85,55.46,78.9,61.21c-6.36,5.89-6.23,15.86.42,22.23s17.09,6.65,23.27.51,5.67-15.78-.87-22ZM41.64,120.46a18.53,18.53,0,0,1,.1-26.35,19.16,19.16,0,0,1,26.6,0,18.44,18.44,0,0,1,.14,26.34,19,19,0,0,1-26.84,0Zm-9.94,10a18.44,18.44,0,0,0-26.34.15,19.11,19.11,0,0,0,0,26.55,18.44,18.44,0,0,0,26.34.12,19,19,0,0,0,0-26.82Zm36.78,36.78a18.45,18.45,0,0,1-.14,26.34,19.12,19.12,0,0,1-26.56,0,18.46,18.46,0,0,1-.12-26.35,19,19,0,0,1,26.82,0Zm34.1,36.5c-6.18-6.14-16.65-5.93-23.27.51s-6.79,16.33-.43,22.22c6.22,5.73,16.4,5.37,22.83-.71,6.53-6.24,7-16.08.87-22Zm30.05,31.9C128,231,119.49,231.68,113.86,237s-6.29,13.11-1.41,17.36c4.62,4.1,12.82,3.24,18.3-1.76,5.54-5.17,6.37-12.71,1.88-17Zm23.66,24.65c2.77,2.71,1.41,8-3,12.05s-10.46,5.25-13.52,2.88c-3.26-2.54-2.2-8.07,2.46-12.25s11-5.48,14.08-2.68ZM172,275.36c-1.63-1.32-6.16.33-10,3.78-4.07,3.49-5.68,7.19-3.83,8.26,1.57,1,5.93-1,9.63-4.1,3.77-3.32,5.69-6.82,4.21-7.94Zm14.08-14c1.22,1.57,5-.55,8.47-4.45s5.47-8.67,4.51-10.45c-1.21-1.93-5.25-.13-8.86,4-3.79,4.23-5.67,9.24-4.12,10.86Zm-15.69-15.11c-3.24-3.47-2-10.71,2.92-16s11.15-6.53,14.1-2.86c2.64,3.56,1.12,10.35-3.4,15.51s-10.65,6.61-13.62,3.33Zm-24.83-23.49c4.84,5.06,13.35,4.06,19.13-2.1s6.62-15.38,2.07-20.62c-4.8-5.45-13.59-4.84-19.51,1.49-6.11,6.42-6.83,16-1.69,21.23Zm-32-30c-6.81-6.9-6.59-18.53.6-25.89s18.16-7.49,24.69-.43c6.36,6.82,5.93,18.17-.85,25.38s-17.78,7.63-24.44.94ZM78.43,157.25a18.53,18.53,0,0,0,26.35-.1,19.17,19.17,0,0,0,0-26.6,18.46,18.46,0,0,0-26.35-.14,19,19,0,0,0,0,26.84ZM138.09,96c6.77,7.23,7.16,18.48.83,25.38-6.57,7-17.65,6.84-24.7-.46s-7.38-19-.57-25.9c6.62-6.74,17.56-6.2,24.44,1Zm9.17-9.79c6,6.43,14.76,7,19.56,1.6,4.57-5.23,3.56-14.47-2-20.61C159,61,150.51,60,145.58,65c-5.07,5.31-4.36,14.89,1.68,21.23Zm36.87-41.25c4.52,5.16,6,12,3.3,15.38-2.87,3.79-9.26,2.54-14-2.75-5-5.39-6.24-12.63-3-16.1,3.08-3.15,9.12-1.59,13.71,3.47Zm10.56-14c-3.55-4.05-7.24-6-8.58-4.6-1.43,1.75.33,6.63,4.12,10.86s7.75,6.12,8.85,4c1-1.78-1-6.32-4.39-10.3ZM167.81,4.35c-3.7-3.13-8.06-5.07-9.63-4.1-1.85,1.07-.24,4.77,3.69,8.16,4,3.55,8.52,5.2,10.15,3.88,1.34-1.24-.58-4.74-4.21-7.94Z" transform="translate(0 0)"/></g><path class="cls-6" d="M399.58,146.66A38.66,38.66,0,0,0,396,133.3a34.6,34.6,0,0,0-7.55-10.4,34,34,0,0,0-10.74-6.69,35.16,35.16,0,0,0-12.92-2.4,34.14,34.14,0,0,0-23.44,9.09,33,33,0,0,0-7.45,10.4,39.92,39.92,0,0,0-3.5,13.36Zm-34.83,68.13a60.94,60.94,0,0,1-24.32-4.71,56.57,56.57,0,0,1-18.72-12.81,57.67,57.67,0,0,1-12.06-18.84,61.22,61.22,0,0,1-4.26-22.79,62,62,0,0,1,4.26-22.88,58.69,58.69,0,0,1,12.06-19.07,56,56,0,0,1,18.72-12.92A61.68,61.68,0,0,1,365,96.06a59,59,0,0,1,24.2,4.82,58.11,58.11,0,0,1,18.51,12.81,55,55,0,0,1,11.72,18.62,62,62,0,0,1,4.06,22.24c0,1.75-.08,3.39-.23,4.93s-.29,2.81-.43,3.83H331a39,39,0,0,0,3.61,13.8,36.08,36.08,0,0,0,7.67,10.63,33.65,33.65,0,0,0,23.33,9.31,38.41,38.41,0,0,0,9.52-1.21,33.45,33.45,0,0,0,8.65-3.5,30.75,30.75,0,0,0,7-5.59,25.74,25.74,0,0,0,4.82-7.23l20.59,5.92q-5.91,12.93-19.6,21.14t-31.87,8.21Z" transform="translate(0 0)"/><path class="cls-6" d="M442.73,239.76a45.57,45.57,0,0,0,5.69.88c1.76.14,3.36.22,4.82.22a17.49,17.49,0,0,0,5-.66,8.92,8.92,0,0,0,4.27-3.39,44.76,44.76,0,0,0,4.61-8.44q2.5-5.7,6-15.77L426.3,98h24.75l35.49,93.32L518.08,98h22.79L488.51,239.1q-4.38,11.84-13.14,17.53A36.58,36.58,0,0,1,455,262.32a42.87,42.87,0,0,1-12.27-1.75V239.76Z" transform="translate(0 0)"/><path class="cls-6" d="M645.57,146.66A38.43,38.43,0,0,0,642,133.3a34.45,34.45,0,0,0-7.56-10.4,34.06,34.06,0,0,0-10.73-6.69,35.17,35.17,0,0,0-12.93-2.4,34.19,34.19,0,0,0-23.44,9.09,33.18,33.18,0,0,0-7.45,10.4,40.39,40.39,0,0,0-3.5,13.36Zm-34.83,68.13a60.89,60.89,0,0,1-24.31-4.71,56.51,56.51,0,0,1-18.73-12.81,57.65,57.65,0,0,1-12.05-18.84,61.22,61.22,0,0,1-4.27-22.79,62,62,0,0,1,4.27-22.88,58.67,58.67,0,0,1,12.05-19.07,55.9,55.9,0,0,1,18.73-12.92A61.67,61.67,0,0,1,611,96.06a59,59,0,0,1,24.21,4.82,58.23,58.23,0,0,1,18.51,12.81,55.2,55.2,0,0,1,11.72,18.62,62,62,0,0,1,4.05,22.24c0,1.75-.08,3.39-.22,4.93s-.29,2.81-.44,3.83H577a39.19,39.19,0,0,0,3.61,13.8,36.44,36.44,0,0,0,7.67,10.63,33.7,33.7,0,0,0,23.33,9.31,38.54,38.54,0,0,0,9.53-1.21,33.74,33.74,0,0,0,8.65-3.5,31,31,0,0,0,7-5.59,26.18,26.18,0,0,0,4.82-7.23l20.59,5.92q-5.91,12.93-19.6,21.14t-31.88,8.21Z" transform="translate(0 0)"/><path class="cls-6" d="M706.46,155.64A43.38,43.38,0,0,0,709.09,171a38.41,38.41,0,0,0,7.23,12.16,33.88,33.88,0,0,0,10.85,8.1,32.13,32.13,0,0,0,26.94,0A33.18,33.18,0,0,0,765,183a39.37,39.37,0,0,0,7.23-12.27,45.7,45.7,0,0,0,0-30.56A39.24,39.24,0,0,0,765,127.82a33.18,33.18,0,0,0-10.84-8.21,31.07,31.07,0,0,0-13.47-3,29.76,29.76,0,0,0-13.26,3.07A34.65,34.65,0,0,0,716.54,128a41.06,41.06,0,0,0-7.34,12.38,42,42,0,0,0-2.74,15.22Zm34.18,59.15A59.58,59.58,0,0,1,716.21,210a56.06,56.06,0,0,1-30.34-31.87,63.85,63.85,0,0,1,0-45.34,56.09,56.09,0,0,1,11.94-18.95,59.84,59.84,0,0,1,85.65,0,56.09,56.09,0,0,1,11.94,18.95,63.85,63.85,0,0,1,0,45.34,56.19,56.19,0,0,1-11.94,19A58.23,58.23,0,0,1,764.84,210a59,59,0,0,1-24.2,4.82Z" transform="translate(0 0)"/><g class="cls-3"><path class="cls-6" d="M882.8,206.68q-4.81,2.2-12.81,4.93a53.32,53.32,0,0,1-17.41,2.74A35.66,35.66,0,0,1,842,212.82a26.4,26.4,0,0,1-8.76-4.6,20.76,20.76,0,0,1-6-8A29.09,29.09,0,0,1,825,188.29V116.65H809.64V98H825V60.36h24.09V98h25v18.62h-25v64q0,6.13,3.51,8.87a13.4,13.4,0,0,0,8.54,2.74,26.82,26.82,0,0,0,9.64-1.75c3.06-1.17,5.33-2.12,6.79-2.85l5.25,19.05Z" transform="translate(0 0)"/><path class="cls-6" d="M935.81,197.05a43.3,43.3,0,0,0,16.54-3.18A28.54,28.54,0,0,0,964.51,185q4.61-3.94,4.61-8.32V161.56a73.18,73.18,0,0,0-13-3.72,71.69,71.69,0,0,0-13.47-1.32q-12.93,0-21.14,5.59t-8.22,14.78a18.64,18.64,0,0,0,6.36,14.35q6.35,5.81,16.2,5.81Zm-6.56,17.74a42.54,42.54,0,0,1-15.45-2.74,37.08,37.08,0,0,1-12.27-7.56,35.28,35.28,0,0,1-8.1-11.38,34.37,34.37,0,0,1-3-14.25A30.64,30.64,0,0,1,894,164.19a34.17,34.17,0,0,1,10-11.39,48.44,48.44,0,0,1,15.33-7.45,69,69,0,0,1,19.61-2.63,90.64,90.64,0,0,1,16,1.42A81.33,81.33,0,0,1,969.12,148v-7.89q0-12.7-7.24-19.82t-20.8-7.12A50.2,50.2,0,0,0,923,116.54a91.68,91.68,0,0,0-18.3,9.75L897.26,111q22.13-14.89,46-14.9,23.67,0,36.81,12t13.14,34.61v41.4q0,4.17,1.53,5.91t5.26,2V212.6a57.35,57.35,0,0,1-6.46.87c-2,.15-3.76.23-5.37.23-4.68-.3-8.21-1.54-10.63-3.73a14.53,14.53,0,0,1-4.48-8.76L972.4,194a51.06,51.06,0,0,1-18.95,15.44,55.59,55.59,0,0,1-24.2,5.37Z" transform="translate(0 0)"/></g></g></g></svg>